<?xml version="1.0" standalone="no"?>
<!DOCTYPE svg PUBLIC "-//W3C//DTD SVG 1.0//EN" "http://www.w3.org/TR/2001/REC-SVG-20010904/DTD/svg10.dtd">
<svg xmlns="http://www.w3.org/2000/svg" xmlns:xlink="http://www.w3.org/1999/xlink" id="body_1" width="82" height="90">

<g transform="matrix(0.64748204 0 0 0.64748204 0.20863405 -0)">
    <path d="M118.991 133.5L100.346 116.674L81.6367 133.5L62.9912 116.674L44.3458 133.5L25.6367 116.674L6.99121 133.5L6.99121 66.1957C 6.99121 49.8329 12.8912 34.1404 23.3932 22.5702C 33.8953 11.0001 48.1391 4.5 62.9912 4.5C 77.8433 4.5 92.0872 11.0001 102.589 22.5702C 113.091 34.1404 118.991 49.8329 118.991 66.1957L118.991 66.1957L118.991 133.5z" stroke="#2B2B2B" stroke-width="2" stroke-linecap="square" fill="#FAFAFA" fill-rule="nonzero" />
    <path d="M44.9912 72.5C 48.8572 72.5 51.9912 68.4706 51.9912 63.5C 51.9912 58.5294 48.8572 54.5 44.9912 54.5C 41.1252 54.5 37.9912 58.5294 37.9912 63.5C 37.9912 68.4706 41.1252 72.5 44.9912 72.5z" stroke="none" fill="#2B2B2B" fill-rule="nonzero" />
    <path d="M80.9912 72.5C 84.8572 72.5 87.9912 68.4706 87.9912 63.5C 87.9912 58.5294 84.8572 54.5 80.9912 54.5C 77.1252 54.5 73.9912 58.5294 73.9912 63.5C 73.9912 68.4706 77.1252 72.5 80.9912 72.5z" stroke="none" fill="#2B2B2B" fill-rule="nonzero" />
</g>
</svg>